<?xml version="1.0" encoding="utf-8"?>
<!-- Generator: Adobe Illustrator 23.1.0, SVG Export Plug-In . SVG Version: 6.00 Build 0)  -->
<svg version="1.1" id="Layer_1" xmlns="http://www.w3.org/2000/svg" xmlns:xlink="http://www.w3.org/1999/xlink" x="0px" y="0px"
	 viewBox="0 0 250 250" style="enable-background:new 0 0 250 250;" xml:space="preserve">
<style type="text/css">
	.st0{fill:#3B4255;}
</style>
<g>
	<path class="st0" d="M125,12.24c30.12,0,58.43,11.73,79.73,33.03c21.3,21.3,33.03,49.61,33.03,79.73s-11.73,58.43-33.03,79.73
		c-21.3,21.3-49.61,33.03-79.73,33.03s-58.43-11.73-79.73-33.03c-21.3-21.3-33.03-49.61-33.03-79.73s11.73-58.43,33.03-79.73
		C66.57,23.97,94.88,12.24,125,12.24 M125,0C55.96,0,0,55.96,0,125s55.96,125,125,125s125-55.96,125-125S194.04,0,125,0L125,0z"/>
</g>
<g>
	<path class="st0" d="M95.75,121.6c21.06-5.71,42.14-11.45,63.2-17.17c0.08,0.12,0.16,0.25,0.24,0.37
		c-1.77,2.04-3.45,4.13-5.29,6.09c-8.84,9.45-10.61,20.41-6.68,32.4c3.6,10.98,7.49,21.86,11.32,32.77
		c2.77,7.9,4.22,15.99,3.03,24.35c-0.33,2.34-1.02,4.75-2.12,6.84c-2.5,4.79-7.98,5.6-12.5,2.1c-3.49-2.71-5.62-6.43-7.43-10.33
		c-3.73-8.05-5.78-16.58-7.23-25.29c-1.38-8.25-1.83-16.62-4.24-24.73c-2.43-8.15-6.54-14.97-13.69-19.78
		c-4.01-2.7-8.57-4.09-13.11-5.5c-1.83-0.57-3.65-1.18-5.48-1.79C95.77,121.83,95.77,121.72,95.75,121.6z M141.82,116.02
		c-8.27,2.26-16.42,4.48-24.87,6.78c0.81,0.61,1.41,0.96,1.93,1.45c2.83,2.67,5.95,5.13,8.41,8.13c5.6,6.89,7.76,15.3,9.33,23.83
		c1.41,7.7,2.26,15.5,3.71,23.18c1.38,7.31,3.49,14.42,7.52,20.79c0.92,1.45,2.12,2.77,3.44,3.89c1.32,1.14,2.36,0.78,2.85-0.86
		c0.49-1.67,0.82-3.4,0.98-5.13c0.89-9.03-1.97-17.37-4.93-25.7c-3.19-8.96-6.31-17.96-9.33-26.98c-2.18-6.51-2.96-13.18-1.63-19.96
		C139.84,122.35,140.9,119.32,141.82,116.02z"/>
	<path class="st0" d="M90.55,109.5c-2.66-7.37-4.99-14.64-7.9-21.69c-1.71-4.14-4.21-7.98-6.58-11.81c-1.38-2.2-3.4-3.83-5.86-4.95
		c-3.44-1.57-4.32-5.82-1.57-8.41c1.55-1.47,3.65-2.55,5.68-3.36c11.85-4.7,24.2-7.72,36.62-10.45c5.58-1.24,11.24-2.22,16.88-3.11
		c5.82-0.92,11.79,0.9,15.07,7.64c5.87,12.06,10.28,24.68,14.23,37.47c0.04,0.12,0,0.24,0,0.57
		C134.88,97.42,112.61,103.49,90.55,109.5z M121.92,53.23c2.26,3.87,4.34,7.33,6.27,10.86c0.51,0.92,0.77,2.18,0.61,3.22
		c-0.21,1.43-1.43,2.22-2.87,2.36c-1.45,0.13-2.55-0.59-3.28-1.83c-2.32-3.95-4.64-7.9-6.92-11.89c-0.49-0.89-1.02-1.22-2.02-0.94
		c-11.37,3.12-22.77,6.23-34.12,9.37c-1.36,0.37-2.63,1.04-4.05,1.61c11.14,9.41,14.72,22.65,19.33,35.38
		c18.01-4.89,35.89-9.76,53.71-14.6c0-0.37,0.04-0.49,0-0.61c-3.45-10.47-7.13-20.87-12.24-30.68c-1.24-2.39-3.3-3.36-5.79-3.24
		C127.82,52.39,125.08,52.86,121.92,53.23z"/>
	<path class="st0" d="M93.18,118.81c-0.59-2.26-1.12-4.26-1.71-6.48c22.3-6.05,44.4-12.06,66.6-18.09c0.61,2.28,1.14,4.28,1.73,6.44
		C137.58,106.73,115.52,112.72,93.18,118.81z"/>
</g>
</svg>
