<?xml version="1.0" encoding="utf-8"?>
<!-- Generator: Adobe Illustrator 23.1.0, SVG Export Plug-In . SVG Version: 6.00 Build 0)  -->
<svg version="1.1" id="Layer_1" xmlns="http://www.w3.org/2000/svg" xmlns:xlink="http://www.w3.org/1999/xlink" x="0px" y="0px"
	 viewBox="0 0 250 250" style="enable-background:new 0 0 250 250;" xml:space="preserve">
<style type="text/css">
	.st0{fill:none;stroke:#3B4255;stroke-width:6.919;stroke-linecap:round;stroke-linejoin:round;stroke-miterlimit:10;}
	.st1{fill:#3B4255;}
</style>
<g>
	<g>
		<polyline class="st0" points="195,80.67 125.01,106.34 55,81.21 		"/>
		<polygon class="st0" points="195,167.01 125.01,195 55,167.01 55,81.21 125.01,55 195,80.67 		"/>
		<line class="st0" x1="125.01" y1="106.34" x2="125.01" y2="195"/>
	</g>
</g>
<g>
	<path class="st1" d="M125,12.24c30.12,0,58.43,11.73,79.73,33.03s33.03,49.61,33.03,79.73s-11.73,58.43-33.03,79.73
		s-49.61,33.03-79.73,33.03s-58.43-11.73-79.73-33.03S12.24,155.12,12.24,125s11.73-58.43,33.03-79.73S94.88,12.24,125,12.24 M125,0
		C55.96,0,0,55.96,0,125s55.96,125,125,125s125-55.96,125-125S194.04,0,125,0L125,0z"/>
</g>
</svg>
