<?xml version="1.0" encoding="utf-8"?>
<!-- Generator: Adobe Illustrator 23.1.0, SVG Export Plug-In . SVG Version: 6.00 Build 0)  -->
<svg version="1.1" id="Layer_1" xmlns="http://www.w3.org/2000/svg" xmlns:xlink="http://www.w3.org/1999/xlink" x="0px" y="0px"
	 viewBox="0 0 250 250" style="enable-background:new 0 0 250 250;" xml:space="preserve">
<style type="text/css">
	.st0{fill:#3B4255;}
</style>
<path class="st0" d="M207.02,90.4l5.48-5.55v-2.4c-0.27-0.34-0.5-0.66-0.75-1.01c-0.61-0.83-1.17-1.62-1.85-2.3
	c-10.59-10.65-21.22-21.26-31.83-31.89l-4.1-4.1c-0.64-0.64-1.31-1.27-1.98-1.9l-0.79-0.75h-3.06l-5.91,5.87
	c-4.84,4.8-9.82,9.74-14.7,14.67c-2.56,2.58-2.61,3.97-0.27,6.78l1.37,1.68c0.1,0.12,0.14,0.27,0.1,0.42
	c-0.04,0.16-0.12,0.28-0.27,0.34l-0.99,0.52c-0.63,0.32-1.15,0.61-1.7,0.89l-10.85,5.43c-11.98,6.01-24.36,12.2-36.57,18.23
	c-2.42,1.19-3.88,2.78-4.88,5.34c-7.6,19.24-15.71,39.55-26.31,65.9c-2.16,5.39-4.46,10.84-6.66,16.1c-1.01,2.4-2.01,4.8-3.03,7.22
	v5.62h5.61c0.24-0.12,0.47-0.27,0.69-0.41c0.58-0.34,1.21-0.71,1.85-0.97l7.82-3.14c25.84-10.35,52.54-21.06,78.85-31.51
	c2.54-1.01,4.13-2.48,5.32-4.9c6.68-13.51,13.51-27.23,20.15-40.48l3.63-7.26c0.28-0.55,0.63-1.05,0.94-1.55
	c0.16-0.24,0.32-0.46,0.47-0.71c0.08-0.12,0.2-0.2,0.36-0.22c0.14-0.02,0.3,0.02,0.41,0.12c4.56,3.99,5.47,3.99,9.56-0.14
	C197.81,99.65,202.42,95.03,207.02,90.4z M175.6,100.64c-4.02,7.93-7.99,15.88-11.96,23.83c-4.1,8.17-8.19,16.36-12.33,24.51
	c-0.63,1.23-1.9,2.89-3.43,3.51c-18.02,7.3-36.35,14.62-54.1,21.71l-9.58,3.83c-0.32,0.12-0.66,0.24-1.19,0.41
	c-0.32,0.1-0.72,0.22-1.23,0.41c-0.06,0.02-0.1,0.02-0.16,0.02c-0.16,0-0.32-0.08-0.42-0.22c-0.12-0.18-0.12-0.42,0.02-0.61
	c0.36-0.44,0.64-0.83,0.89-1.15c0.44-0.58,0.77-1.01,1.15-1.4c3.35-3.35,6.69-6.69,10.02-10.05c7.95-7.95,16.18-16.16,24.21-24.31
	c1.54-1.55,2.86-1.57,4.68-1.13c3.65,0.93,7.52,0.32,10.63-1.65c2.94-1.9,4.92-4.78,5.55-8.15c0.71-3.83-0.08-7.59-2.24-10.57
	c-2.01-2.78-5.04-4.6-8.51-5.09c-3.83-0.52-7.52,0.44-10.39,2.75c-2.84,2.28-4.58,5.62-4.88,9.44c-0.06,0.77-0.12,1.59,0.12,2.14
	c1.79,3.89-0.22,6.31-2.44,8.47c-9.06,8.81-18.11,17.94-26.87,26.75l-4.76,4.8c-0.55,0.55-0.94,1.23-1.37,1.96
	c-0.2,0.34-0.41,0.69-0.63,1.03c-0.08,0.12-0.2,0.2-0.34,0.22s-0.28-0.02-0.41-0.12L74.46,171c-0.16-0.14-0.22-0.36-0.14-0.57
	l2.52-6.38c1.84-4.68,3.69-9.36,5.55-14.02l2.01-5.03c5.17-12.95,10.51-26.33,15.9-39.44c0.63-1.54,2.04-3.06,3.53-3.82
	c9.24-4.7,18.66-9.42,27.77-13.98c6.96-3.49,13.92-6.98,20.88-10.49c1.84-0.93,3.25-1.11,5,0.71c5.57,5.77,11.44,11.6,17.43,17.33
	C176.81,97.19,176.61,98.68,175.6,100.64z M120.36,127.41c0-1.35,0.64-2.7,1.73-3.71c1.07-1.01,2.44-1.54,3.77-1.45
	c2.66,0.18,4.98,2.75,4.88,5.4c-0.1,2.64-2.56,4.98-5.18,4.98c-0.04,0-0.08,0-0.12,0C122.86,132.57,120.33,129.97,120.36,127.41z
	 M188.29,97.01c-0.12,0-0.27-0.04-0.36-0.14l-31.87-31.85c-0.1-0.1-0.14-0.22-0.14-0.36c0-0.14,0.06-0.27,0.14-0.36l12.99-12.91
	c0.2-0.2,0.52-0.2,0.71,0l31.75,31.89c0.2,0.2,0.2,0.52,0,0.71l-12.89,12.87C188.56,96.97,188.42,97.01,188.29,97.01z"/>
<g>
	<path class="st0" d="M125,12.24c30.12,0,58.43,11.73,79.73,33.03c21.3,21.3,33.03,49.61,33.03,79.73s-11.73,58.43-33.03,79.73
		c-21.3,21.3-49.61,33.03-79.73,33.03s-58.43-11.73-79.73-33.03c-21.3-21.3-33.03-49.61-33.03-79.73s11.73-58.43,33.03-79.73
		C66.57,23.97,94.88,12.24,125,12.24 M125,0C55.96,0,0,55.96,0,125s55.96,125,125,125s125-55.96,125-125S194.04,0,125,0L125,0z"/>
</g>
</svg>
